<svg width="145" height="19" viewBox="0 0 145 19" fill="none" xmlns="http://www.w3.org/2000/svg">
<path d="M7.564 18.288C6.236 18.288 5.06 18.024 4.036 17.496C3.028 16.952 2.236 16.176 1.66 15.168C1.084 14.16 0.796 12.968 0.796 11.592V1.2H4.756V11.736C4.756 12.312 4.868 12.832 5.092 13.296C5.316 13.76 5.636 14.128 6.052 14.4C6.484 14.672 6.988 14.808 7.564 14.808C8.14 14.808 8.636 14.672 9.052 14.4C9.468 14.128 9.788 13.76 10.012 13.296C10.252 12.832 10.372 12.312 10.372 11.736V1.2H14.332V11.736C14.332 12.312 14.444 12.832 14.668 13.296C14.892 13.76 15.212 14.128 15.628 14.4C16.06 14.672 16.564 14.808 17.14 14.808C17.716 14.808 18.212 14.672 18.628 14.4C19.06 14.128 19.388 13.76 19.612 13.296C19.836 12.832 19.948 12.312 19.948 11.736V1.2H23.908V11.592C23.908 12.968 23.62 14.16 23.044 15.168C22.468 16.176 21.668 16.952 20.644 17.496C19.636 18.024 18.468 18.288 17.14 18.288C16.484 18.288 15.86 18.208 15.268 18.048C14.692 17.904 14.156 17.68 13.66 17.376C13.18 17.072 12.74 16.704 12.34 16.272C11.956 16.704 11.516 17.072 11.02 17.376C10.524 17.664 9.988 17.888 9.412 18.048C8.836 18.208 8.22 18.288 7.564 18.288ZM34.2109 18.312C32.8669 18.312 31.6509 18.088 30.5629 17.64C29.4749 17.192 28.5389 16.568 27.7549 15.768C26.9709 14.968 26.3629 14.04 25.9309 12.984C25.5149 11.928 25.3069 10.792 25.3069 9.576C25.3069 8.36 25.5149 7.224 25.9309 6.168C26.3629 5.112 26.9629 4.192 27.7309 3.408C28.5149 2.608 29.4509 1.992 30.5389 1.56C31.6429 1.112 32.8669 0.887999 34.2109 0.887999C35.5389 0.887999 36.7469 1.112 37.8349 1.56C38.9389 1.992 39.8749 2.608 40.6429 3.408C41.4269 4.192 42.0349 5.12 42.4669 6.192C42.8989 7.248 43.1149 8.376 43.1149 9.576C43.1149 10.792 42.8989 11.928 42.4669 12.984C42.0349 14.04 41.4269 14.968 40.6429 15.768C39.8749 16.568 38.9389 17.192 37.8349 17.64C36.7469 18.088 35.5389 18.312 34.2109 18.312ZM34.2109 14.88C34.9149 14.88 35.5629 14.752 36.1549 14.496C36.7629 14.224 37.2829 13.848 37.7149 13.368C38.1469 12.888 38.4829 12.328 38.7229 11.688C38.9629 11.032 39.0829 10.328 39.0829 9.576C39.0829 8.824 38.9629 8.128 38.7229 7.488C38.4829 6.848 38.1469 6.288 37.7149 5.808C37.2829 5.328 36.7629 4.96 36.1549 4.704C35.5629 4.432 34.9149 4.296 34.2109 4.296C33.4909 4.296 32.8349 4.432 32.2429 4.704C31.6509 4.96 31.1309 5.328 30.6829 5.808C30.2509 6.288 29.9149 6.856 29.6749 7.512C29.4509 8.152 29.3389 8.84 29.3389 9.576C29.3389 10.328 29.4509 11.032 29.6749 11.688C29.9149 12.328 30.2509 12.888 30.6829 13.368C31.1309 13.848 31.6509 14.224 32.2429 14.496C32.8349 14.752 33.4909 14.88 34.2109 14.88ZM44.6468 18V1.2H52.3268C53.4628 1.2 54.4948 1.448 55.4228 1.944C56.3668 2.44 57.1108 3.128 57.6548 4.008C58.2148 4.888 58.4948 5.904 58.4948 7.056C58.4948 8.128 58.2388 9.096 57.7268 9.96C57.2148 10.808 56.5428 11.496 55.7108 12.024L57.0548 14.304C57.1348 14.416 57.2228 14.504 57.3188 14.568C57.4308 14.632 57.5748 14.664 57.7508 14.664H59.2388V18H56.8868C56.1668 18 55.5108 17.832 54.9188 17.496C54.3268 17.144 53.8628 16.688 53.5268 16.128L51.7268 12.936C51.6148 12.936 51.4948 12.936 51.3668 12.936C51.2548 12.936 51.1348 12.936 51.0068 12.936H48.6788V18H44.6468ZM48.6788 9.6H51.8708C52.3348 9.6 52.7668 9.504 53.1668 9.312C53.5668 9.104 53.8788 8.816 54.1028 8.448C54.3428 8.064 54.4628 7.608 54.4628 7.08C54.4628 6.552 54.3428 6.104 54.1028 5.736C53.8628 5.352 53.5428 5.064 53.1428 4.872C52.7588 4.664 52.3348 4.56 51.8708 4.56H48.6788V9.6ZM60.4531 18V1.2H64.4851V7.992H67.2691C67.7331 7.992 68.1571 7.896 68.5411 7.704C68.9411 7.512 69.2531 7.224 69.4771 6.84C69.7011 6.456 69.8131 6.008 69.8131 5.496V1.2H73.8451V5.52C73.8451 6.592 73.5891 7.552 73.0771 8.4C72.5651 9.248 71.8931 9.928 71.0611 10.44L72.8851 14.28C72.9331 14.408 73.0131 14.504 73.1251 14.568C73.2531 14.632 73.3891 14.664 73.5331 14.664H75.0451V18H72.7171C71.8371 18 71.1251 17.832 70.5811 17.496C70.0371 17.16 69.6211 16.696 69.3331 16.104L67.0531 11.352C66.9251 11.352 66.8051 11.352 66.6931 11.352C66.5811 11.352 66.4611 11.352 66.3331 11.352H64.4851V18H60.4531Z" fill="#FF4C29"/>
<path d="M76.1912 18V14.64H83.3672C83.6872 14.64 83.9752 14.56 84.2312 14.4C84.4872 14.24 84.6872 14.032 84.8312 13.776C84.9912 13.52 85.0712 13.24 85.0712 12.936C85.0712 12.616 84.9912 12.328 84.8312 12.072C84.6872 11.816 84.4872 11.608 84.2312 11.448C83.9752 11.288 83.6872 11.208 83.3672 11.208H80.7752C79.7992 11.208 78.9112 11.016 78.1112 10.632C77.3112 10.248 76.6712 9.688 76.1912 8.952C75.7272 8.2 75.4952 7.304 75.4952 6.264C75.4952 5.24 75.7192 4.352 76.1672 3.6C76.6152 2.848 77.2232 2.264 77.9912 1.848C78.7592 1.416 79.6072 1.2 80.5352 1.2H87.9512V4.56H80.9912C80.7032 4.56 80.4392 4.632 80.1992 4.776C79.9592 4.92 79.7752 5.112 79.6472 5.352C79.5192 5.592 79.4552 5.856 79.4552 6.144C79.4552 6.432 79.5192 6.696 79.6472 6.936C79.7752 7.16 79.9592 7.344 80.1992 7.488C80.4392 7.632 80.7032 7.704 80.9912 7.704H83.7032C84.7752 7.704 85.7032 7.912 86.4872 8.328C87.2872 8.728 87.9032 9.296 88.3352 10.032C88.7832 10.752 89.0072 11.6 89.0072 12.576C89.0072 13.728 88.7752 14.712 88.3112 15.528C87.8632 16.328 87.2552 16.944 86.4872 17.376C85.7192 17.792 84.8712 18 83.9432 18H76.1912ZM90.6359 18V1.2H97.8599C98.9799 1.2 100.004 1.456 100.932 1.968C101.876 2.48 102.628 3.192 103.188 4.104C103.748 5 104.028 6.04 104.028 7.224C104.028 8.408 103.748 9.464 103.188 10.392C102.628 11.304 101.884 12.016 100.956 12.528C100.028 13.04 98.9959 13.296 97.8599 13.296H94.6679V18H90.6359ZM94.6679 9.912H97.4039C97.8839 9.912 98.3159 9.808 98.6999 9.6C99.0839 9.392 99.3959 9.088 99.6359 8.688C99.8759 8.288 99.9959 7.808 99.9959 7.248C99.9959 6.688 99.8759 6.208 99.6359 5.808C99.3959 5.408 99.0759 5.104 98.6759 4.896C98.2919 4.672 97.8679 4.56 97.4039 4.56H94.6679V9.912ZM102.822 18L108.27 3.144C108.542 2.408 108.99 1.856 109.614 1.488C110.238 1.104 110.942 0.912 111.726 0.912C112.51 0.912 113.214 1.096 113.838 1.464C114.462 1.816 114.91 2.368 115.182 3.12L120.654 18H116.31L115.254 14.76H108.126L107.022 18H102.822ZM109.158 11.424H114.222L112.086 4.728C112.054 4.632 112.006 4.568 111.942 4.536C111.894 4.488 111.83 4.464 111.75 4.464C111.67 4.464 111.598 4.488 111.534 4.536C111.486 4.584 111.454 4.648 111.438 4.728L109.158 11.424ZM128.955 18C127.579 17.984 126.339 17.76 125.235 17.328C124.131 16.896 123.195 16.304 122.427 15.552C121.659 14.8 121.067 13.92 120.651 12.912C120.235 11.888 120.027 10.784 120.027 9.6C120.027 8.416 120.235 7.32 120.651 6.312C121.067 5.288 121.659 4.4 122.427 3.648C123.211 2.896 124.147 2.304 125.235 1.872C126.339 1.44 127.579 1.216 128.955 1.2H131.547V4.56H129.051C128.299 4.576 127.611 4.712 126.987 4.968C126.379 5.224 125.851 5.576 125.403 6.024C124.971 6.472 124.635 7 124.395 7.608C124.171 8.216 124.059 8.88 124.059 9.6C124.059 10.32 124.171 10.984 124.395 11.592C124.635 12.2 124.971 12.728 125.403 13.176C125.851 13.624 126.379 13.976 126.987 14.232C127.611 14.488 128.299 14.624 129.051 14.64H131.547V18H128.955ZM137.714 18C136.77 18 135.914 17.784 135.146 17.352C134.378 16.904 133.762 16.312 133.298 15.576C132.85 14.824 132.626 13.976 132.626 13.032C132.626 12.328 132.778 11.672 133.082 11.064C133.402 10.44 133.826 9.904 134.354 9.456C133.842 9.024 133.434 8.512 133.13 7.92C132.842 7.328 132.698 6.704 132.698 6.048C132.698 5.12 132.922 4.296 133.37 3.576C133.818 2.84 134.418 2.264 135.17 1.848C135.922 1.416 136.754 1.2 137.666 1.2H144.746V4.584L138.29 4.56C137.986 4.56 137.706 4.632 137.45 4.776C137.194 4.92 136.986 5.112 136.826 5.352C136.682 5.592 136.61 5.872 136.61 6.192C136.61 6.496 136.682 6.776 136.826 7.032C136.986 7.272 137.194 7.464 137.45 7.608C137.706 7.736 137.986 7.8 138.29 7.8H143.93V11.16H138.41C138.074 11.16 137.77 11.24 137.498 11.4C137.226 11.56 137.01 11.768 136.85 12.024C136.69 12.28 136.61 12.576 136.61 12.912C136.61 13.232 136.69 13.528 136.85 13.8C137.01 14.056 137.226 14.256 137.498 14.4C137.77 14.544 138.074 14.616 138.41 14.616H144.746V18H137.714Z" fill="white"/>
</svg>
