<svg width="65" height="45" viewBox="0 0 65 45" fill="none" xmlns="http://www.w3.org/2000/svg">
<g id="Vector" opacity="0.5">
<path d="M53.2253 44.7333C48.6099 44.7333 45.1189 42.8398 42.752 39.0529C40.7402 35.8577 39.7343 31.9524 39.7343 27.337C39.7343 21.4199 41.2136 16.0945 44.1721 11.3608C47.249 6.62716 51.8644 2.84022 58.0181 0L59.6158 3.19524C55.9472 4.73369 52.7519 7.1597 50.03 10.4733C47.4265 13.7869 46.1248 17.1596 46.1248 20.5915C46.1248 22.0116 46.3023 23.2542 46.6573 24.3193C48.5508 22.7809 50.7401 22.0116 53.2253 22.0116C56.4205 22.0116 59.0832 23.0767 61.2134 25.2069C63.4619 27.2187 64.5861 29.9406 64.5861 33.3725C64.5861 36.5677 63.4619 39.2896 61.2134 41.5381C59.0832 43.6682 56.4205 44.7333 53.2253 44.7333Z" fill="#667580"/>
<path d="M13.491 44.7333C8.87566 44.7333 5.38457 42.8398 3.01772 39.0529C1.00591 35.8577 0 31.9524 0 27.337C0 21.4199 1.47928 16.0945 4.43783 11.3608C7.51472 6.62716 12.1301 2.84022 18.2839 0L19.8815 3.19524C16.2129 4.73369 13.0176 7.1597 10.2958 10.4733C7.69224 13.7869 6.39047 17.1596 6.39047 20.5915C6.39047 22.0116 6.56799 23.2542 6.92301 24.3193C8.81649 22.7809 11.0058 22.0116 13.491 22.0116C16.6862 22.0116 19.3489 23.0767 21.4791 25.2069C23.7276 27.2187 24.8518 29.9406 24.8518 33.3725C24.8518 36.5677 23.7276 39.2896 21.4791 41.5381C19.3489 43.6682 16.6862 44.7333 13.491 44.7333Z" fill="#667580"/>
</g>
</svg>
